<?xml version="1.0" ?><svg viewBox="0 0 64 64" xmlns="http://www.w3.org/2000/svg"><title/><g data-name="Layer 7" id="Layer_7"><path d="M54,45.18a9.87,9.87,0,0,1,6.09,2.08A32,32,0,1,0,45.8,60.86,10,10,0,0,1,54,45.18ZM42.38,37.31l-.25-.55a3.57,3.57,0,0,0-3.19-2H24.76a3.56,3.56,0,0,0-3.19,2l-.25.56a6.59,6.59,0,0,1-8.76,3.11L12,40.15a6.57,6.57,0,0,1-3.11-8.76l5.51-11.56A6.78,6.78,0,0,1,20.51,16H43.2a6.8,6.8,0,0,1,6.12,3.87l5.51,11.55a6.59,6.59,0,0,1-3.11,8.76l-.58.27A6.58,6.58,0,0,1,42.38,37.31ZM54,48.93a6.25,6.25,0,1,0,6.25,6.24A6.24,6.24,0,0,0,54,48.93ZM57.37,54l-2.68,4a1.05,1.05,0,0,1-.76.44h-.1a1,1,0,0,1-.72-.29l-2-1.94a1,1,0,1,1,1.45-1.49l1.12,1.08,2-2.92A1,1,0,1,1,57.37,54ZM43.88,21.56A1.56,1.56,0,1,1,42.33,20,1.55,1.55,0,0,1,43.88,21.56Zm0,6.4a1.56,1.56,0,1,1-1.55-1.55A1.56,1.56,0,0,1,43.88,28Zm3.2-3.2a1.56,1.56,0,1,1-1.55-1.55A1.56,1.56,0,0,1,47.08,24.76Zm-6.4,0a1.56,1.56,0,1,1-1.55-1.55A1.56,1.56,0,0,1,40.68,24.76ZM25,23.92V25.6a.71.71,0,0,1-.71.71H22.48a.71.71,0,0,0-.71.71V28.8a.71.71,0,0,1-.71.71H19.38a.71.71,0,0,1-.71-.71V27a.71.71,0,0,0-.72-.71H16.18a.71.71,0,0,1-.71-.71V23.92a.71.71,0,0,1,.71-.71H18a.71.71,0,0,0,.72-.71V20.72a.71.71,0,0,1,.71-.71h1.68a.71.71,0,0,1,.71.71V22.5a.71.71,0,0,0,.71.71h1.78A.71.71,0,0,1,25,23.92Z"/></g></svg>