<?xml version="1.0" encoding="UTF-8" standalone="no"?>
<svg
   viewBox="0 0 32 32"
   version="1.1"
   id="svg29"
   sodipodi:docname="plant_icon.svg"
   inkscape:version="1.2 (dc2aedaf03, 2022-05-15)"
   xmlns:inkscape="http://www.inkscape.org/namespaces/inkscape"
   xmlns:sodipodi="http://sodipodi.sourceforge.net/DTD/sodipodi-0.dtd"
   xmlns="http://www.w3.org/2000/svg"
   xmlns:svg="http://www.w3.org/2000/svg">
  <sodipodi:namedview
     id="namedview31"
     pagecolor="#505050"
     bordercolor="#eeeeee"
     borderopacity="1"
     inkscape:showpageshadow="0"
     inkscape:pageopacity="0"
     inkscape:pagecheckerboard="0"
     inkscape:deskcolor="#505050"
     showgrid="false"
     inkscape:zoom="16.84375"
     inkscape:cx="15.970315"
     inkscape:cy="16.029685"
     inkscape:window-width="1366"
     inkscape:window-height="697"
     inkscape:window-x="-8"
     inkscape:window-y="-8"
     inkscape:window-maximized="1"
     inkscape:current-layer="svg29" />
  <defs
     id="defs4">
    <style
       id="style2">.cls-1{fill:#77acf1;}.cls-2{fill:#04009a;}</style>
  </defs>
  <g
     data-name="6. Cactus"
     id="_6._Cactus"
     style="fill:#000000">
    <path
       class="cls-1"
       d="M16,4a1,1,0,0,1-1-1V1a1,1,0,0,1,2,0V3A1,1,0,0,1,16,4Z"
       id="path6"
       style="fill:#000000" />
    <path
       class="cls-1"
       d="M11,6a1,1,0,0,1-.707-.293l-1-1a1,1,0,0,1,1.414-1.414l1,1A1,1,0,0,1,11,6Z"
       id="path8"
       style="fill:#000000" />
    <path
       class="cls-1"
       d="M10,10H8A1,1,0,0,1,8,8h2a1,1,0,0,1,0,2Z"
       id="path10"
       style="fill:#000000" />
    <path
       class="cls-1"
       d="M9,16a1,1,0,0,1-.45-1.894l1.95-.98a1,1,0,1,1,.9,1.788l-1.95.98A1,1,0,0,1,9,16Z"
       id="path12"
       style="fill:#000000" />
    <path
       class="cls-1"
       d="M23,16a1,1,0,0,1-.448-.106l-1.95-.98a1,1,0,0,1,.9-1.788l1.95.98A1,1,0,0,1,23,16Z"
       id="path14"
       style="fill:#000000" />
    <path
       class="cls-1"
       d="M23,3a1,1,0,0,1-1-1V1a1,1,0,0,1,2,0V2A1,1,0,0,1,23,3Z"
       id="path16"
       style="fill:#000000" />
    <path
       class="cls-1"
       d="M25.5,4.574a1,1,0,0,1-.541-1.842l1.322-.848a1,1,0,1,1,1.08,1.684l-1.322.848A1,1,0,0,1,25.5,4.574Z"
       id="path18"
       style="fill:#000000" />
    <path
       class="cls-1"
       d="M26.287,9.172a1,1,0,0,1-.723-.308L24.448,7.7a1,1,0,0,1,1.445-1.384L27.009,7.48a1,1,0,0,1-.722,1.692Z"
       id="path20"
       style="fill:#000000" />
    <path
       class="cls-1"
       d="M16,10a1,1,0,0,1-1-1V8a1,1,0,0,1,2,0V9A1,1,0,0,1,16,10Z"
       id="path22"
       style="fill:#000000" />
    <path
       class="cls-1"
       d="M16,15a1,1,0,0,1-1-1V13a1,1,0,0,1,2,0v1A1,1,0,0,1,16,15Z"
       id="path24"
       style="fill:#000000" />
    <path
       class="cls-2"
       d="M25.537,8.117a4,4,0,0,0-5.655-5.654,5.737,5.737,0,0,0-.4.471A6.989,6.989,0,0,0,9,9a23.714,23.714,0,0,0,2.476,9H8a1,1,0,0,0-1,1v4a1,1,0,0,0,1,1h.117l.672,5.372A3,3,0,0,0,11.766,32h8.468a3,3,0,0,0,2.977-2.628l.281-2.248a1,1,0,0,0-1.984-.248l-.281,2.248a1,1,0,0,1-.993.876H11.766a1,1,0,0,1-.993-.876L10.133,24H24a1,1,0,0,0,1-1V19a1,1,0,0,0-1-1H20.524a24.925,24.925,0,0,0,2.442-8.295A7.894,7.894,0,0,0,25.537,8.117Zm-1.414-4.24a2,2,0,0,1-.006,2.832,5.309,5.309,0,0,1-1.266.855,6.989,6.989,0,0,0-1.8-3.4,3.7,3.7,0,0,1,.245-.29A2,2,0,0,1,24.123,3.877ZM23,22H9V20H23Zm-4.765-4h-4.47A21.775,21.775,0,0,1,11,9,5,5,0,0,1,21,9,21.775,21.775,0,0,1,18.235,18Z"
       id="path26"
       style="fill:#000000" />
  </g>
  <path
     style="fill:#000000;stroke-width:0.0593692"
     d="M 11.398887,31.940447 C 10.294735,31.805042 9.2986475,30.982476 8.9429211,29.912318 8.8922935,29.760011 8.7030111,28.45092 8.5222937,27.003227 8.1025629,23.640844 8.1769894,24.007275 7.9049441,23.963773 7.6104655,23.916684 7.3097495,23.710317 7.1571987,23.450633 7.0399508,23.251044 7.0352505,23.15592 7.0352505,20.982677 v -2.260365 l 0.1579673,-0.238705 c 0.2826327,-0.427087 0.329213,-0.43537 2.4484077,-0.43537 1.0317995,0 1.8759995,-0.01402 1.8759995,-0.03117 0,-0.01714 -0.09124,-0.212355 -0.202766,-0.433806 C 10.227883,15.424818 9.403031,12.527219 9.1079625,9.8307206 9.0209887,9.0359059 9.0155397,8.7924969 9.0736359,8.2973317 9.2815018,6.5256481 9.9558352,5.1641533 11.228109,3.9473995 12.553569,2.6797811 14.13901,2.050775 16,2.0542046 c 1.170275,0.00216 2.044242,0.1995528 3.009861,0.679814 l 0.456986,0.2272867 0.433552,-0.4322637 c 0.731251,-0.7290771 1.656832,-1.1049457 2.716898,-1.1033032 0.994918,0.00154 1.821784,0.2959287 2.546989,0.9067981 1.792176,1.5096216 1.914925,4.1823751 0.267341,5.8211003 -0.384288,0.3822225 -1.375428,1.0349049 -1.995984,1.3143902 l -0.500749,0.225527 -0.07217,0.570663 c -0.275069,2.174954 -1.035286,4.817311 -1.974744,6.863798 -0.194865,0.42449 -0.368702,0.805195 -0.386303,0.846011 -0.02522,0.05848 0.366979,0.07421 1.850349,0.07421 2.126156,0 2.171957,0.0081 2.454759,0.43525 l 0.157968,0.238585 0.01763,2.125045 c 0.01124,1.354818 -0.005,2.208983 -0.04473,2.35663 -0.08459,0.314129 -0.271936,0.537119 -0.561929,0.668827 -0.231289,0.105046 -0.556947,0.110034 -7.265241,0.11128 l -7.023099,0.0013 0.03301,0.19295 c 0.01816,0.106122 0.166954,1.274953 0.330661,2.597402 0.163708,1.322449 0.324336,2.486873 0.356951,2.58761 0.07454,0.230213 0.317661,0.46596 0.603815,0.585493 0.192765,0.08052 0.774028,0.0922 4.588178,0.0922 4.76446,0 4.605012,0.01089 4.970798,-0.339472 0.223913,-0.214471 0.258799,-0.354176 0.43215,-1.730637 0.08376,-0.665091 0.190458,-1.283059 0.237104,-1.373262 0.106823,-0.206572 0.40897,-0.463618 0.601876,-0.512034 0.591825,-0.148539 1.208907,0.324048 1.208907,0.925829 0,0.436135 -0.286968,2.552091 -0.390744,2.881153 -0.275363,0.87314 -1.005866,1.607153 -1.931389,1.940671 l -0.379166,0.136635 -4.482375,0.009 c -2.465306,0.005 -4.656029,-0.01226 -4.868274,-0.03829 z M 23.03525,20.987013 V 19.948052 H 16 8.9647495 v 1.038961 1.038961 H 16 23.03525 Z m -4.256146,-3.962894 c 0.56993,-1.154297 0.915737,-2.008126 1.30444,-3.220779 0.654172,-2.040849 1.051969,-4.5653069 0.879771,-5.5831076 C 20.78851,7.1870281 20.342,6.2863721 19.636247,5.5433978 17.642884,3.4449043 14.318907,3.4573667 12.341696,5.570747 c -1.128224,1.2059238 -1.505803,2.4944819 -1.272871,4.3439098 0.328986,2.6120912 1.126979,5.1828472 2.308219,7.4359922 l 0.365719,0.697588 h 2.265343 2.265343 z M 23.243043,7.3851239 C 23.617107,7.1605809 24.05949,6.8214794 24.24105,6.6201178 24.300157,6.5545632 24.43198,6.3288162 24.53399,6.1184577 24.908049,5.3470911 24.730427,4.421105 24.09426,3.8260459 23.651055,3.4114787 23.348683,3.2956501 22.70872,3.2952907 c -0.460937,-2.612e-4 -0.57917,0.021745 -0.860854,0.160209 -0.179591,0.08828 -0.444358,0.2806701 -0.588372,0.4275338 l -0.26184,0.2670248 0.203735,0.2255274 c 0.283603,0.3139374 0.708476,0.9253228 0.961252,1.3832269 0.207215,0.3753696 0.635133,1.5504273 0.635133,1.7440683 0,0.1352341 0.04257,0.1239765 0.445269,-0.117757 z"
     id="path171" />
  <path
     style="fill:#000000;stroke-width:0.0593692"
     d="M 15.552358,9.8373142 C 15.140181,9.6193497 15.020331,9.3301866 15.020739,8.5546696 c 4.08e-4,-0.7752602 0.06285,-1.0130685 0.326862,-1.2448754 0.429038,-0.3767001 0.95169,-0.3564983 1.341223,0.051842 0.254683,0.2669782 0.290768,0.4178011 0.290768,1.2152971 0,0.751236 -0.123791,1.0445419 -0.53195,1.2603812 -0.326948,0.1728945 -0.568336,0.1728945 -0.895284,-3e-7 z"
     id="path173" />
  <path
     style="fill:#000000;stroke-width:0.0593692"
     d="m 15.525046,14.8297 c -0.154085,-0.08845 -0.284384,-0.229247 -0.371057,-0.400966 -0.196158,-0.388634 -0.196158,-1.455957 0,-1.844247 0.182804,-0.361855 0.453959,-0.532539 0.846011,-0.532539 0.392052,0 0.663207,0.170684 0.846011,0.532539 0.114818,0.22728 0.133398,0.356466 0.132277,0.919744 -0.0015,0.75651 -0.09821,1.053642 -0.416764,1.280469 -0.283935,0.202179 -0.728981,0.221501 -1.036478,0.045 z"
     id="path175" />
  <path
     style="fill:#000000;stroke-width:0.0593692"
     d="m 22.233766,15.693264 c -0.293877,-0.149073 -0.539597,-0.275444 -0.546044,-0.280826 -0.0064,-0.0054 0.123479,-0.428467 0.288726,-0.94019 l 0.300447,-0.930406 0.601812,0.301239 c 0.733452,0.367132 1.021849,0.641998 1.079922,1.029256 0.08212,0.547586 -0.413505,1.102915 -0.977243,1.094974 -0.130943,-0.0018 -0.419599,-0.107655 -0.74762,-0.274047 z"
     id="path177" />
  <path
     style="fill:#000000;stroke-width:0.0593692"
     d="M 25.914657,9.0581783 C 25.816698,9.014161 25.622882,8.8604522 25.483956,8.716603 L 25.231363,8.455059 25.474897,8.2201083 c 0.281636,-0.2717099 0.675758,-0.8286124 0.804539,-1.1368286 l 0.08895,-0.2128759 0.270314,0.260531 c 0.400561,0.3860617 0.611955,0.7422373 0.610791,1.0291116 -0.0027,0.6704693 -0.738994,1.1658662 -1.33483,0.8981319 z"
     id="path179" />
  <path
     style="fill:#000000;stroke-width:0.0593692"
     d="M 26.355294,3.8449639 C 26.26195,3.5621282 25.792143,2.8200837 25.597194,2.6475703 25.5269,2.5853666 25.469388,2.5141615 25.469388,2.4893368 c 0,-0.024825 0.233766,-0.194228 0.51948,-0.3764515 0.455924,-0.2907804 0.55654,-0.3313458 0.822389,-0.3315624 0.334918,-2.729e-4 0.602644,0.1416608 0.819648,0.4345335 0.173281,0.2338641 0.174196,0.7942302 0.0017,1.0302539 -0.103645,0.1417989 -1.052862,0.8349658 -1.159261,0.846551 -0.01926,0.0021 -0.07238,-0.1093663 -0.118031,-0.2476974 z"
     id="path181" />
  <path
     style="fill:#000000;stroke-width:0.0593692"
     d="M 23.539889,1.453192 C 23.376623,1.411226 22.965991,1.3743255 22.627373,1.3711909 l -0.61567,-0.0057 0.02582,-0.3570131 c 0.0362,-0.50044161 0.319892,-0.84937794 0.767537,-0.94405309 0.64658,-0.13674895 1.180094,0.37662147 1.180094,1.13553829 0,0.3804499 0.01546,0.3716557 -0.445269,0.2532282 z"
     id="path183" />
  <path
     style="fill:#000000;stroke-width:0.0593692"
     d="M 15.029417,1.3310502 C 15.048878,0.71801796 15.061617,0.65839406 15.21653,0.45529198 15.42728,0.17898492 15.677313,0.04947433 16,0.04947433 c 0.665999,0 0.979592,0.44443833 0.979592,1.38832197 v 0.551072 h -0.985528 -0.985529 z"
     id="path185" />
  <path
     style="fill:#000000;stroke-width:0.0593692"
     d="M 9.5661076,4.9056767 C 9.1060361,4.4425141 8.9973014,4.2131719 9.0589556,3.8359966 9.1141582,3.4982888 9.5181704,3.1094159 9.8683855,3.056898 10.215605,3.0048292 10.450859,3.1078263 10.87943,3.4995458 l 0.341396,0.3120407 -0.385614,0.4164992 C 10.623124,4.4571604 10.346226,4.7993853 10.219883,4.9885856 L 9.9901678,5.3325862 Z"
     id="path187" />
  <path
     style="fill:#000000;stroke-width:0.0593692"
     d="M 7.6259991,9.8905175 C 7.2217289,9.7144284 6.9549229,9.1828274 7.0670329,8.7767983 7.2188628,8.2269159 7.5981581,8.0180511 8.4483661,8.0161462 l 0.5819468,-0.0013 -0.03619,0.4897959 c -0.019905,0.2693878 -0.013281,0.7102041 0.01472,0.9795919 l 0.05091,0.4897959 -0.6263513,-0.00232 c -0.3853312,-0.00144 -0.69602,-0.032677 -0.8074025,-0.081192 z"
     id="path189" />
  <path
     style="fill:#000000;stroke-width:0.0593692"
     d="M 8.5654589,15.846044 C 8.2261476,15.678087 8.0487676,15.381071 8.0487676,14.980865 c 0,-0.45863 0.2013927,-0.677982 1.0093006,-1.099308 0.3558023,-0.185552 0.6548669,-0.329413 0.6645879,-0.319692 0.00972,0.0097 0.133218,0.388623 0.2744377,0.842005 0.1412192,0.453382 0.2744072,0.864827 0.2959722,0.914323 0.02979,0.06837 -0.09674,0.157526 -0.5266009,0.371057 -0.6321904,0.31404 -0.8309188,0.339985 -1.2010062,0.156794 z"
     id="path191" />
</svg>
