<?xml version="1.0" ?><!DOCTYPE svg  PUBLIC '-//W3C//DTD SVG 1.1//EN'  'http://www.w3.org/Graphics/SVG/1.1/DTD/svg11.dtd'><svg enable-background="new 0 0 24 24" height="24px" id="Layer_1" version="1.1" viewBox="0 0 24 24" width="24px" xml:space="preserve" xmlns="http://www.w3.org/2000/svg" xmlns:xlink="http://www.w3.org/1999/xlink"><path d="M19.2,5.3c1.8,0,3.3,1.5,3.3,3.3s-1.5,3.3-3.3,3.3s-3.3-1.5-3.3-3.3S17.4,5.3,19.2,5.3z M11.2,6.7c1.6,0,3,1.3,3,2.9  s-1.3,2.9-3,2.9c-1.6,0-2.9-1.3-2.9-2.9S9.6,6.7,11.2,6.7z M1.4,10.6C1.4,9.2,2.6,8,4,8s2.6,1.1,2.6,2.5c0,1.4-1.2,2.5-2.6,2.5  S1.4,12,1.4,10.6z M1.1,17.7c0-1.4,1.2-3,2.9-3c1.7,0,2.9,1.5,2.9,3v1H1.1V17.7z M7.9,17.7v-0.2c0-1.6,1.3-3.3,3.3-3.3  c2,0,3.3,1.7,3.3,3.3v1.1H7.9V17.7z M22.9,18.7h-7.4v-1.1v-0.2c0-1.8,1.5-3.8,3.7-3.8c2.2,0,3.7,1.9,3.7,3.8V18.7z"/></svg>